<svg width="70" height="58" viewBox="0 0 70 58" fill="none" xmlns="http://www.w3.org/2000/svg">
<path d="M27.7963 37.5321H27.7971C31.8456 37.5321 35.1276 34.2501 35.1276 30.2016C35.1276 26.1531 31.8456 22.8711 27.7971 22.8711C23.7486 22.8711 20.4666 26.1531 20.4666 30.2016L20.4666 30.2024C20.4728 34.2479 23.7508 37.5259 27.7963 37.5321ZM27.7977 25.9728C30.1329 25.9731 32.0259 27.8663 32.0259 30.2016C32.0259 32.5371 30.1326 34.4304 27.7971 34.4304C25.4618 34.4304 23.5686 32.5374 23.5683 30.2022C23.5737 27.8686 25.4641 25.9782 27.7977 25.9728Z" fill="#FEAD04"/>
<path d="M27.7963 37.5321H27.7971C31.8456 37.5321 35.1276 34.2501 35.1276 30.2016C35.1276 26.1531 31.8456 22.8711 27.7971 22.8711C23.7486 22.8711 20.4666 26.1531 20.4666 30.2016L20.4666 30.2024C20.4728 34.2479 23.7508 37.5259 27.7963 37.5321ZM27.7977 25.9728C30.1329 25.9731 32.0259 27.8663 32.0259 30.2016C32.0259 32.5371 30.1326 34.4304 27.7971 34.4304C25.4618 34.4304 23.5686 32.5374 23.5683 30.2022C23.5737 27.8686 25.4641 25.9782 27.7977 25.9728Z" stroke="#FEAD04"/>
<path d="M27.7963 37.5321H27.7971C31.8456 37.5321 35.1276 34.2501 35.1276 30.2016C35.1276 26.1531 31.8456 22.8711 27.7971 22.8711C23.7486 22.8711 20.4666 26.1531 20.4666 30.2016L20.4666 30.2024C20.4728 34.2479 23.7508 37.5259 27.7963 37.5321ZM27.7977 25.9728C30.1329 25.9731 32.0259 27.8663 32.0259 30.2016C32.0259 32.5371 30.1326 34.4304 27.7971 34.4304C25.4618 34.4304 23.5686 32.5374 23.5683 30.2022C23.5737 27.8686 25.4641 25.9782 27.7977 25.9728Z" stroke="white"/>
<path d="M3.49558 23.6358L3.49651 23.6356L9.38086 22.5712L5.98061 17.6664C5.98055 17.6663 5.98049 17.6662 5.98043 17.6661C5.9804 17.6661 5.98038 17.6661 5.98036 17.6661C4.97346 16.216 5.14779 14.2532 6.39456 13.0033L6.39501 13.0029L10.5979 8.80003C10.598 8.79993 10.5981 8.79982 10.5982 8.79971L10.5984 8.7995L10.952 9.15305C12.0282 8.07354 13.7226 7.91869 14.9767 8.78525L3.49558 23.6358ZM3.49558 23.6358C1.73975 23.9568 0.473356 25.4998 0.500425 27.2841V33.224C0.473356 35.0084 1.73975 36.5513 3.49558 36.8724L3.49636 36.8725L9.36739 37.9363L5.97263 42.733L5.97261 42.733L5.96942 42.7376C4.9655 44.1905 5.14479 46.1534 6.39522 47.4004C6.39533 47.4005 6.39544 47.4006 6.39555 47.4007L10.5984 51.6035L10.5988 51.604C11.8489 52.8509 13.8118 53.0251 15.2619 52.018L20.1668 48.6176L21.2311 54.4917L21.2313 54.4925C21.5523 56.2483 23.0954 57.5147 24.8797 57.4876H30.8194C32.6038 57.5147 34.1468 56.2483 34.4679 54.4925L34.468 54.4917L35.5324 48.6176L40.4376 52.0182L40.4382 52.0186C41.8908 53.0223 43.8532 52.8433 45.1002 51.5936L3.49558 23.6358ZM11.021 40.9525L8.54906 44.5221C8.54872 44.5226 8.54837 44.5231 8.54803 44.5236C8.40032 44.7423 8.42838 45.0351 8.61516 45.2217L8.61533 45.2219L12.8159 49.4225C12.8163 49.4229 12.8168 49.4233 12.8172 49.4237C13.0055 49.6079 13.2981 49.633 13.5151 49.4833L11.021 40.9525ZM11.021 40.9525C12.5792 43.3874 14.6476 45.4551 17.083 47.0125M11.021 40.9525L17.083 47.0125M17.083 47.0125L13.5155 49.4831L17.083 47.0125ZM32.9134 10.9702C29.8316 10.1732 26.6091 10.1135 23.5062 10.791L24.2746 6.51078C24.2747 6.51069 24.2747 6.5106 24.2747 6.5105C24.3233 6.24564 24.5562 6.05469 24.8255 6.05908L24.8255 6.05915H24.8336H28.3225C29.179 6.05915 29.8733 5.36481 29.8733 4.5083C29.8733 3.65179 29.179 2.95746 28.3225 2.95746H24.8271C23.0428 2.93039 21.4998 4.19678 21.1787 5.95261L21.1786 5.95339L20.1149 11.8238L32.9134 10.9702ZM3.60212 27.2276H3.60219L3.60205 27.2195C3.59766 26.9503 3.78841 26.7175 4.05306 26.6688C4.05329 26.6687 4.05352 26.6687 4.05375 26.6686L8.32204 25.9007C7.70104 28.7271 7.70104 31.6549 8.32204 34.4813L4.05381 33.7134C4.05361 33.7134 4.0534 33.7133 4.05319 33.7133C3.79287 33.6654 3.60345 33.439 3.60212 33.1744V27.2276ZM30.7686 54.3965V54.3964H30.7604H24.8231V54.3964L24.815 54.3965C24.5459 54.4009 24.313 54.2101 24.2643 53.9455C24.2642 53.9453 24.2642 53.945 24.2641 53.9448L23.4965 49.6779C26.3257 50.3041 29.2579 50.3041 32.0871 49.6779L31.3194 53.9448C31.3194 53.945 31.3193 53.9453 31.3193 53.9455C31.2706 54.2102 31.0377 54.4009 30.7686 54.3965ZM8.56301 15.2122L8.56823 15.2073L8.5733 15.2022L12.7767 10.9988L12.7769 10.9986C12.9635 10.8118 13.2564 10.7838 13.475 10.9316C13.4755 10.9319 13.476 10.9322 13.4764 10.9325L17.0452 13.404C14.5976 14.9665 12.5199 17.0441 10.9574 19.4918L8.48589 15.9228C8.48559 15.9223 8.48529 15.9219 8.48499 15.9215C8.33371 15.6979 8.36665 15.3976 8.56301 15.2122Z" fill="#FEAD04"/>
<path d="M3.49558 23.6358L3.49651 23.6356L9.38086 22.5712L5.98061 17.6664C5.98055 17.6663 5.98049 17.6662 5.98043 17.6661C5.9804 17.6661 5.98038 17.6661 5.98036 17.6661C4.97346 16.216 5.14779 14.2532 6.39456 13.0033L6.39501 13.0029L10.5979 8.80003C10.598 8.79993 10.5981 8.79982 10.5982 8.79971L10.5984 8.7995L10.952 9.15305C12.0282 8.07354 13.7226 7.91869 14.9767 8.78525L3.49558 23.6358ZM3.49558 23.6358C1.73975 23.9568 0.473356 25.4998 0.500425 27.2841V33.224C0.473356 35.0084 1.73975 36.5513 3.49558 36.8724L3.49636 36.8725L9.36739 37.9363L5.97263 42.733L5.97261 42.733L5.96942 42.7376C4.9655 44.1905 5.14479 46.1534 6.39522 47.4004C6.39533 47.4005 6.39544 47.4006 6.39555 47.4007L10.5984 51.6035L10.5988 51.604C11.8489 52.8509 13.8118 53.0251 15.2619 52.018L20.1668 48.6176L21.2311 54.4917L21.2313 54.4925C21.5523 56.2483 23.0954 57.5147 24.8797 57.4876H30.8194C32.6038 57.5147 34.1468 56.2483 34.4679 54.4925L34.468 54.4917L35.5324 48.6176L40.4376 52.0182L40.4382 52.0186C41.8908 53.0223 43.8532 52.8433 45.1002 51.5936L3.49558 23.6358ZM11.021 40.9525L8.54906 44.5221C8.54872 44.5226 8.54837 44.5231 8.54803 44.5236C8.40032 44.7423 8.42838 45.0351 8.61516 45.2217L8.61533 45.2219L12.8159 49.4225C12.8163 49.4229 12.8168 49.4233 12.8172 49.4237C13.0055 49.6079 13.2981 49.633 13.5151 49.4833L11.021 40.9525ZM11.021 40.9525C12.5792 43.3874 14.6476 45.4551 17.083 47.0125M11.021 40.9525L17.083 47.0125M17.083 47.0125L13.5155 49.4831L17.083 47.0125ZM32.9134 10.9702C29.8316 10.1732 26.6091 10.1135 23.5062 10.791L24.2746 6.51078C24.2747 6.51069 24.2747 6.5106 24.2747 6.5105C24.3233 6.24564 24.5562 6.05469 24.8255 6.05908L24.8255 6.05915H24.8336H28.3225C29.179 6.05915 29.8733 5.36481 29.8733 4.5083C29.8733 3.65179 29.179 2.95746 28.3225 2.95746H24.8271C23.0428 2.93039 21.4998 4.19678 21.1787 5.95261L21.1786 5.95339L20.1149 11.8238L32.9134 10.9702ZM3.60212 27.2276H3.60219L3.60205 27.2195C3.59766 26.9503 3.78841 26.7175 4.05306 26.6688C4.05329 26.6687 4.05352 26.6687 4.05375 26.6686L8.32204 25.9007C7.70104 28.7271 7.70104 31.6549 8.32204 34.4813L4.05381 33.7134C4.05361 33.7134 4.0534 33.7133 4.05319 33.7133C3.79287 33.6654 3.60345 33.439 3.60212 33.1744V27.2276ZM30.7686 54.3965V54.3964H30.7604H24.8231V54.3964L24.815 54.3965C24.5459 54.4009 24.313 54.2101 24.2643 53.9455C24.2642 53.9453 24.2642 53.945 24.2641 53.9448L23.4965 49.6779C26.3257 50.3041 29.2579 50.3041 32.0871 49.6779L31.3194 53.9448C31.3194 53.945 31.3193 53.9453 31.3193 53.9455C31.2706 54.2102 31.0377 54.4009 30.7686 54.3965ZM8.56301 15.2122L8.56823 15.2073L8.5733 15.2022L12.7767 10.9988L12.7769 10.9986C12.9635 10.8118 13.2564 10.7838 13.475 10.9316C13.4755 10.9319 13.476 10.9322 13.4764 10.9325L17.0452 13.404C14.5976 14.9665 12.5199 17.0441 10.9574 19.4918L8.48589 15.9228C8.48559 15.9223 8.48529 15.9219 8.48499 15.9215C8.33371 15.6979 8.36665 15.3976 8.56301 15.2122Z" stroke="#FEAD04"/>
<path d="M3.49558 23.6358L3.49651 23.6356L9.38086 22.5712L5.98061 17.6664C5.98055 17.6663 5.98049 17.6662 5.98043 17.6661C5.9804 17.6661 5.98038 17.6661 5.98036 17.6661C4.97346 16.216 5.14779 14.2532 6.39456 13.0033L6.39501 13.0029L10.5979 8.80003C10.598 8.79993 10.5981 8.79982 10.5982 8.79971L10.5984 8.7995L10.952 9.15305C12.0282 8.07354 13.7226 7.91869 14.9767 8.78525L3.49558 23.6358ZM3.49558 23.6358C1.73975 23.9568 0.473356 25.4998 0.500425 27.2841V33.224C0.473356 35.0084 1.73975 36.5513 3.49558 36.8724L3.49636 36.8725L9.36739 37.9363L5.97263 42.733L5.97261 42.733L5.96942 42.7376C4.9655 44.1905 5.14479 46.1534 6.39522 47.4004C6.39533 47.4005 6.39544 47.4006 6.39555 47.4007L10.5984 51.6035L10.5988 51.604C11.8489 52.8509 13.8118 53.0251 15.2619 52.018L20.1668 48.6176L21.2311 54.4917L21.2313 54.4925C21.5523 56.2483 23.0954 57.5147 24.8797 57.4876H30.8194C32.6038 57.5147 34.1468 56.2483 34.4679 54.4925L34.468 54.4917L35.5324 48.6176L40.4376 52.0182L40.4382 52.0186C41.8908 53.0223 43.8532 52.8433 45.1002 51.5936L3.49558 23.6358ZM11.021 40.9525L8.54906 44.5221C8.54872 44.5226 8.54837 44.5231 8.54803 44.5236C8.40032 44.7423 8.42838 45.0351 8.61516 45.2217L8.61533 45.2219L12.8159 49.4225C12.8163 49.4229 12.8168 49.4233 12.8172 49.4237C13.0055 49.6079 13.2981 49.633 13.5151 49.4833L11.021 40.9525ZM11.021 40.9525C12.5792 43.3874 14.6476 45.4551 17.083 47.0125M11.021 40.9525L17.083 47.0125M17.083 47.0125L13.5155 49.4831L17.083 47.0125ZM32.9134 10.9702C29.8316 10.1732 26.6091 10.1135 23.5062 10.791L24.2746 6.51078C24.2747 6.51069 24.2747 6.5106 24.2747 6.5105C24.3233 6.24564 24.5562 6.05469 24.8255 6.05908L24.8255 6.05915H24.8336H28.3225C29.179 6.05915 29.8733 5.36481 29.8733 4.5083C29.8733 3.65179 29.179 2.95746 28.3225 2.95746H24.8271C23.0428 2.93039 21.4998 4.19678 21.1787 5.95261L21.1786 5.95339L20.1149 11.8238L32.9134 10.9702ZM3.60212 27.2276H3.60219L3.60205 27.2195C3.59766 26.9503 3.78841 26.7175 4.05306 26.6688C4.05329 26.6687 4.05352 26.6687 4.05375 26.6686L8.32204 25.9007C7.70104 28.7271 7.70104 31.6549 8.32204 34.4813L4.05381 33.7134C4.05361 33.7134 4.0534 33.7133 4.05319 33.7133C3.79287 33.6654 3.60345 33.439 3.60212 33.1744V27.2276ZM30.7686 54.3965V54.3964H30.7604H24.8231V54.3964L24.815 54.3965C24.5459 54.4009 24.313 54.2101 24.2643 53.9455C24.2642 53.9453 24.2642 53.945 24.2641 53.9448L23.4965 49.6779C26.3257 50.3041 29.2579 50.3041 32.0871 49.6779L31.3194 53.9448C31.3194 53.945 31.3193 53.9453 31.3193 53.9455C31.2706 54.2102 31.0377 54.4009 30.7686 54.3965ZM8.56301 15.2122L8.56823 15.2073L8.5733 15.2022L12.7767 10.9988L12.7769 10.9986C12.9635 10.8118 13.2564 10.7838 13.475 10.9316C13.4755 10.9319 13.476 10.9322 13.4764 10.9325L17.0452 13.404C14.5976 14.9665 12.5199 17.0441 10.9574 19.4918L8.48589 15.9228C8.48559 15.9223 8.48529 15.9219 8.48499 15.9215C8.33371 15.6979 8.36665 15.3976 8.56301 15.2122Z" stroke="white"/>
<path d="M22.3486 18.4711L22.3486 18.4711L22.3474 18.4687C21.9604 17.7085 21.0323 17.4036 20.27 17.7859C15.6326 20.1046 13.1106 24.7362 13.1106 30.7277C13.1106 31.5842 13.8049 32.2785 14.6614 32.2785C15.5179 32.2785 16.2123 31.5842 16.2123 30.7277C16.2123 25.8662 18.173 22.2958 21.663 20.5508L21.663 20.5508L21.6662 20.5492C22.4266 20.1621 22.7315 19.2335 22.3486 18.4711Z" fill="#FEAD04"/>
<path d="M22.3486 18.4711L22.3486 18.4711L22.3474 18.4687C21.9604 17.7085 21.0323 17.4036 20.27 17.7859C15.6326 20.1046 13.1106 24.7362 13.1106 30.7277C13.1106 31.5842 13.8049 32.2785 14.6614 32.2785C15.5179 32.2785 16.2123 31.5842 16.2123 30.7277C16.2123 25.8662 18.173 22.2958 21.663 20.5508L21.663 20.5508L21.6662 20.5492C22.4266 20.1621 22.7315 19.2335 22.3486 18.4711Z" stroke="#FEAD04"/>
<path d="M22.3486 18.4711L22.3486 18.4711L22.3474 18.4687C21.9604 17.7085 21.0323 17.4036 20.27 17.7859C15.6326 20.1046 13.1106 24.7362 13.1106 30.7277C13.1106 31.5842 13.8049 32.2785 14.6614 32.2785C15.5179 32.2785 16.2123 31.5842 16.2123 30.7277C16.2123 25.8662 18.173 22.2958 21.663 20.5508L21.663 20.5508L21.6662 20.5492C22.4266 20.1621 22.7315 19.2335 22.3486 18.4711Z" stroke="white"/>
<path d="M24.1191 18.6173C24.9756 18.6173 25.67 17.923 25.67 17.0665C25.67 16.21 24.9756 15.5156 24.1191 15.5156C23.2626 15.5156 22.5683 16.21 22.5683 17.0665C22.5683 17.923 23.2626 18.6173 24.1191 18.6173Z" fill="#FEAD04"/>
<path d="M24.1191 18.6173C24.9756 18.6173 25.67 17.923 25.67 17.0665C25.67 16.21 24.9756 15.5156 24.1191 15.5156C23.2626 15.5156 22.5683 16.21 22.5683 17.0665C22.5683 17.923 23.2626 18.6173 24.1191 18.6173Z" stroke="#FEAD04"/>
<path d="M24.1191 18.6173C24.9756 18.6173 25.67 17.923 25.67 17.0665C25.67 16.21 24.9756 15.5156 24.1191 15.5156C23.2626 15.5156 22.5683 16.21 22.5683 17.0665C22.5683 17.923 23.2626 18.6173 24.1191 18.6173Z" stroke="white"/>
<path d="M59.9426 8.45901C59.8618 8.16694 59.5982 7.96273 59.2932 7.95579C58.5942 7.93989 57.9046 8.05149 57.256 8.27498C57.3284 8.01958 57.3836 7.75837 57.4198 7.49274C57.6659 5.6867 57.028 3.85309 55.7131 2.58794C55.4945 2.37752 55.1622 2.33466 54.8951 2.48209C53.2869 3.3692 52.18 4.97704 51.9339 6.78318C51.8862 7.13322 51.8721 7.48425 51.8893 7.832C51.1428 7.38587 50.2948 7.10512 49.4066 7.02881C49.1029 7.00275 48.8164 7.17699 48.7008 7.45857C48.0065 9.15074 48.1596 11.0875 49.1103 12.6391C49.1116 12.6413 49.113 12.6434 49.1144 12.6455C48.8923 12.6376 48.6687 12.6423 48.4448 12.6604C48.1406 12.6851 47.887 12.9043 47.8203 13.2006C47.7261 13.6183 47.6811 14.0416 47.682 14.4624C47.635 14.4635 47.5878 14.4688 47.5406 14.4798C47.3609 14.5214 47.1842 14.5718 47.0107 14.6298C47.4405 13.1389 47.2532 11.5155 46.4694 10.1596C46.3177 9.89713 46.0109 9.76503 45.7133 9.83395C44.5886 10.0945 43.5755 10.6836 42.7951 11.5005C42.7318 11.2178 42.6469 10.9386 42.5396 10.6658C41.8736 8.9727 40.4189 7.68227 38.6482 7.21388C38.3537 7.13601 38.0416 7.25879 37.8791 7.5164C36.902 9.06553 36.7162 11.0013 37.3822 12.6944C37.4895 12.9672 37.6175 13.2293 37.7639 13.4795C36.6361 13.4132 35.4931 13.6721 34.4923 14.2476C34.2274 14.3998 34.0929 14.7056 34.1606 15.0011C34.5106 16.5277 35.4794 17.8436 36.8097 18.6422C36.6432 18.718 36.4795 18.8015 36.3196 18.8934C36.0548 19.0456 35.9203 19.3514 35.988 19.6469C36.338 21.1735 37.3068 22.4895 38.6371 23.2881C38.4706 23.3639 38.3068 23.4473 38.147 23.5393C37.8821 23.6915 37.7476 23.9973 37.8153 24.2927C38.1653 25.8194 39.1341 27.1353 40.4644 27.9339C40.2979 28.0096 40.1342 28.0931 39.9743 28.1851C39.7095 28.3373 39.575 28.6431 39.6426 28.9385C39.7763 29.5217 39.9991 30.0781 40.3048 30.5923C40.4994 30.9195 40.9249 31.0263 41.2549 30.8312C41.5851 30.6361 41.695 30.2126 41.5004 29.8854C41.3587 29.6471 41.2404 29.3969 41.1465 29.1374C42.2634 28.6601 43.5089 28.657 44.6387 29.1435C45.7686 29.6301 46.6154 30.5343 47.0224 31.6678C46.7599 31.7797 46.4866 31.8659 46.2063 31.9258C45.8309 32.0062 45.5909 32.3731 45.6695 32.7454C45.7482 33.1179 46.116 33.3548 46.4911 33.2746C46.8067 33.2071 47.1152 33.114 47.4142 32.9964C47.4675 32.9754 47.5202 32.9531 47.5729 32.9306L50.227 39.6782C50.3663 40.0324 50.7687 40.2057 51.1257 40.0652C51.4827 39.9248 51.6591 39.5239 51.5198 39.1697L48.8654 32.4213C48.9159 32.403 48.9664 32.3847 49.0164 32.365C50.3447 31.8425 51.4512 30.8446 52.0983 29.5693C53.0131 29.656 53.9491 29.5234 54.8088 29.1852C54.8192 29.1811 54.8293 29.1764 54.8395 29.1723C55.4695 31.7951 56.2831 34.3821 57.2757 36.9056C57.415 37.2598 57.8174 37.433 58.1743 37.2926C58.5312 37.1522 58.7078 36.7513 58.5685 36.3971C57.5846 33.8956 56.7847 31.3582 56.1692 28.792C57.3008 29.0426 58.4961 28.9542 59.5861 28.5254C59.7412 28.4644 59.8943 28.3965 60.0446 28.3218C61.6865 27.5051 62.8604 25.9447 63.1847 24.1476C63.2387 23.8488 63.09 23.551 62.8186 23.4139C62.0007 23.0012 61.1019 22.7942 60.2021 22.793C61.0628 21.6151 61.4603 20.1382 61.2809 18.6762C61.244 18.3753 61.0135 18.1348 60.7131 18.0835C60.3741 18.0257 60.0327 17.9988 59.6931 18.0015C60.5302 16.7448 60.8543 15.192 60.5639 13.6974C60.5061 13.3999 60.2594 13.1759 59.956 13.1454C59.7126 13.121 59.4692 13.1127 59.227 13.119C60.1112 11.745 60.3804 10.0408 59.9426 8.45901ZM45.1953 27.0227C44.0791 27.501 42.8324 27.5037 41.7023 27.017C40.5722 26.5303 39.7252 25.6258 39.3183 24.4919C40.4347 24.0134 41.6813 24.011 42.8113 24.4976C43.9414 24.9843 44.7884 25.8888 45.1953 27.0227ZM43.3679 22.3769C42.2517 22.8552 41.005 22.8578 39.8749 22.3711C38.7448 21.8844 37.8978 20.98 37.491 19.846C38.6074 19.3676 39.8539 19.3651 40.9839 19.8517C42.114 20.3385 42.9611 21.2429 43.3679 22.3769ZM41.5405 17.7311C40.4244 18.2095 39.1776 18.212 38.0476 17.7253C36.9175 17.2386 36.0705 16.3342 35.6636 15.2002C36.78 14.7219 38.0265 14.7193 39.1565 15.206C40.2867 15.6927 41.1337 16.5971 41.5405 17.7311ZM41.1272 14.6455C40.0022 14.2005 39.1235 13.3264 38.6749 12.1859C38.2263 11.0454 38.274 9.80694 38.7944 8.71473C39.9195 9.15962 40.7982 10.0338 41.2468 11.1743C41.6954 12.3148 41.6476 13.5533 41.1272 14.6455ZM50.9618 28.7394C50.4661 29.8656 49.5521 30.7124 48.4089 31.1233C47.9342 30.0161 47.938 28.777 48.4337 27.6507C48.9295 26.5245 49.8434 25.6773 50.9867 25.2668C51.4615 26.3741 51.4576 27.6132 50.9618 28.7394ZM49.1345 24.0936C48.6388 25.2199 47.7249 26.0671 46.5815 26.4775C46.1068 25.3702 46.1107 24.1311 46.6063 23.0049C47.1021 21.8787 48.017 21.0313 49.1594 20.6211C49.6341 21.7282 49.6303 22.9674 49.1345 24.0936ZM47.3071 19.4478C46.8114 20.574 45.8974 21.421 44.7541 21.8317C44.2794 20.7245 44.2833 19.4853 44.779 18.3591C45.2747 17.2329 46.1887 16.3859 47.332 15.9752C47.8068 17.0825 47.8029 18.3216 47.3071 19.4478ZM45.4797 14.802C44.984 15.9282 44.0703 16.7757 42.9267 17.1859C42.452 16.0786 42.4559 14.8394 42.9516 13.7133C43.4473 12.5871 44.3612 11.7397 45.5046 11.3294C45.9794 12.4367 45.9755 13.6758 45.4797 14.802ZM53.309 6.96104C53.4748 5.74444 54.121 4.68131 55.1079 3.97466C55.8714 4.90772 56.2104 6.0983 56.0447 7.3149C55.8788 8.53153 55.2326 9.59466 54.2457 10.3013C53.4823 9.36814 53.1433 8.17762 53.309 6.96104ZM49.8114 8.48056C50.998 8.72528 52.0161 9.43461 52.6564 10.4799C53.2968 11.5252 53.4649 12.752 53.1416 13.9162C51.955 13.6714 50.9369 12.9621 50.2966 11.9169C49.6562 10.8715 49.488 9.64471 49.8114 8.48056ZM54.1686 27.9538C53.6598 28.1354 53.1197 28.2238 52.5823 28.215C52.7667 27.3802 52.7628 26.5145 52.5739 25.6854C53.342 26.2475 53.8985 27.036 54.1686 27.9538ZM53.7126 23.8244C52.6774 23.8568 51.6733 23.5289 50.8611 22.8918C50.9779 21.7083 50.7302 20.4998 50.124 19.4512C50.1111 19.4288 50.0966 19.4078 50.0816 19.3874C50.9601 19.5378 51.7753 19.9536 52.4281 20.6025C53.2984 21.4674 53.752 22.6189 53.7126 23.8244ZM50.1334 17.2942C49.3346 16.38 48.9663 15.2118 49.0878 14.0239C50.2872 14.0694 51.3987 14.5946 52.1975 15.5088C52.9964 16.4229 53.3646 17.5912 53.2431 18.7791C52.0437 18.7335 50.9322 18.2082 50.1334 17.2942ZM61.6929 24.4318C61.3392 25.5873 60.5353 26.5386 59.4292 27.0887C58.3243 27.6388 57.0783 27.7066 55.9411 27.2925C56.2948 26.1369 57.0988 25.1857 58.2049 24.6355C59.3107 24.0854 60.5558 24.0177 61.6929 24.4318ZM58.5574 22.5819C57.6616 23.4305 56.4899 23.8597 55.2789 23.7976C55.275 22.5917 55.7627 21.4487 56.6586 20.6L56.6586 20.6C57.5543 19.7513 58.726 19.3221 59.9371 19.3843C59.941 20.5901 59.4532 21.7331 58.5574 22.5819ZM58.1178 17.7796C57.2828 18.6876 56.1435 19.1961 54.9305 19.2176C54.8428 18.0152 55.25 16.8418 56.0849 15.9339C56.9197 15.0259 58.0591 14.5173 59.2721 14.4959C59.3599 15.6982 58.9527 16.8716 58.1178 17.7796ZM57.8208 12.7156C57.0589 13.6848 55.962 14.2795 54.7537 14.3941C54.5725 13.2026 54.8872 12.0019 55.6491 11.0328C56.4112 10.0637 57.5081 9.46896 58.7162 9.35429C58.8975 10.5457 58.5828 11.7464 57.8208 12.7156Z" fill="#FEAD04"/>
</svg>
