<svg width="62" height="62" viewBox="0 0 62 62" fill="none" xmlns="http://www.w3.org/2000/svg">
<g clip-path="url(#clip0_518_701)">
<path d="M58.1326 6.55337L58.1326 6.55339L61.4042 12.1943L61.4042 12.1943C61.5312 12.4132 61.5322 12.6831 61.4067 12.9031L61.841 13.1508L61.4067 12.9031L58.1353 18.6383C58.0088 18.8601 57.773 18.997 57.5177 18.997H51.6254H51.3573L51.2089 19.2204L48.7263 22.959L48.5296 23.2551L48.7448 23.5381C49.1453 24.0647 49.3828 24.7194 49.3828 25.4296C49.3828 25.9062 49.2771 26.3646 49.0782 26.7801L48.9254 27.0992L49.1756 27.3495L51.5952 29.769L51.8454 30.0193L52.1647 29.8664C52.58 29.6674 53.0384 29.5618 53.515 29.5618C55.2417 29.5618 56.6473 30.9674 56.6473 32.6941C56.6473 34.4208 55.2417 35.8264 53.515 35.8264C51.7883 35.8264 50.3827 34.4208 50.3827 32.6941C50.3827 32.2176 50.4884 31.7591 50.6873 31.3437L50.8402 31.0245L50.5899 30.7743L48.1704 28.3547L47.9201 28.1044L47.6009 28.2574C47.1856 28.4563 46.7271 28.5619 46.2505 28.5619C44.5238 28.5619 43.1182 27.1563 43.1182 25.4296C43.1182 23.7029 44.5238 22.2973 46.2505 22.2973C46.5088 22.2973 46.7598 22.3294 47.0009 22.3888L47.3424 22.473L47.537 22.18L49.9737 18.5107L50.143 18.2556L49.9928 17.9888L47.431 13.44L47.2876 13.1854H46.9954H41.1666C40.9141 13.1854 40.6804 13.0514 40.553 12.8333L40.553 12.8333L37.4578 7.53795L37.3855 7.41429L37.2587 7.34767L34.4207 5.85663L34.1077 5.69217L33.8483 5.93256C33.2884 6.45161 32.5415 6.76848 31.7215 6.76848C29.9948 6.76848 28.5892 5.36287 28.5892 3.63615C28.5892 1.90943 29.9948 0.503828 31.7215 0.503828C33.4483 0.503828 34.8539 1.90943 34.8539 3.63615C34.8539 3.78762 34.8424 3.93743 34.8212 4.08522L34.7709 4.43474L35.0835 4.59897L37.197 5.70935L37.6223 5.93279L37.8625 5.51671L40.5509 0.859329L40.551 0.859268C40.6779 0.639337 40.9126 0.503828 41.1666 0.503828H47.7083C47.9626 0.503828 48.1976 0.639787 48.3245 0.860385L51.2496 5.94843L51.3938 6.19919H51.683H57.5177C57.7712 6.19919 58.0054 6.3341 58.1326 6.55337ZM38.8635 6.62607L38.7183 6.87757L38.8649 7.12827L41.4297 11.5161L41.5745 11.7638H41.8613H47.0152H47.3014L47.4463 11.517L50.0101 7.15105L50.1572 6.90057L50.0124 6.64874L47.4411 2.17624L47.297 1.92548H47.0077H41.8656H41.5769L41.4326 2.17548L38.8635 6.62607ZM56.8144 17.5754H57.1048L57.2487 17.3232L59.8267 12.8036L59.9691 12.5539L59.825 12.3052L57.2528 7.86531L57.1084 7.616H56.8202H51.6691H51.3828L51.2379 7.86298L48.6711 12.2387L48.5257 12.4866L48.6667 12.737L51.2482 17.3208L51.3916 17.5754H51.6838H56.8144ZM30.0109 3.63615C30.0109 4.57986 30.7778 5.34682 31.7215 5.34682C32.6652 5.34682 33.4322 4.57986 33.4322 3.63615C33.4322 2.69245 32.6652 1.92548 31.7215 1.92548C30.7778 1.92548 30.0109 2.69245 30.0109 3.63615ZM46.2505 23.719C45.3068 23.719 44.5399 24.4859 44.5399 25.4296C44.5399 26.3733 45.3068 27.1403 46.2505 27.1403C47.1951 27.1403 47.9612 26.3742 47.9612 25.4296C47.9612 24.4859 47.1942 23.719 46.2505 23.719ZM53.515 34.4048C54.4587 34.4048 55.2257 33.6378 55.2257 32.6941C55.2257 31.7504 54.4587 30.9834 53.515 30.9834C52.5705 30.9834 51.8043 31.7496 51.8043 32.6941C51.8043 33.6378 52.5713 34.4048 53.515 34.4048Z" fill="#FEAD04" stroke="#FEAD04" stroke-width="0.999844"/>
<path d="M21.6569 30.9873L21.6567 30.9873V31.0005C21.6567 31.9432 22.4241 32.7097 23.3674 32.7097C24.3107 32.7097 25.0774 31.9436 25.0781 31.0005L25.0781 30.9934L25.0779 30.9863C25.073 30.8114 25.0168 30.6143 24.9544 30.4365C24.8874 30.2458 24.7943 30.026 24.683 29.7886C24.46 29.3131 24.1517 28.7412 23.7975 28.1447L23.3676 27.4206L22.9378 28.1448C22.5833 28.7419 22.2747 29.3142 22.0517 29.7898C21.9403 30.0271 21.8472 30.2469 21.7803 30.4375C21.7179 30.6151 21.6616 30.8123 21.6569 30.9873ZM21.1967 28.3191C21.7439 27.2971 22.3909 26.3189 22.7825 25.7521L22.7825 25.752C22.9154 25.5598 23.134 25.4452 23.3674 25.4452C23.6009 25.4452 23.8195 25.5599 23.9523 25.7521C24.3439 26.3189 24.991 27.2971 25.5381 28.3191C25.8118 28.8302 26.0558 29.3437 26.2303 29.8162C26.4075 30.2962 26.4997 30.6989 26.4997 30.9991C26.4997 32.7258 25.0941 34.1314 23.3674 34.1314C21.6407 34.1314 20.2351 32.7258 20.2351 30.9991C20.2351 30.6989 20.3273 30.2962 20.5046 29.8162C20.6791 29.3437 20.9231 28.8302 21.1967 28.3191Z" fill="#FEAD04" stroke="#FEAD04" stroke-width="0.999844"/>
<path d="M24.0783 60.785C24.0783 61.1775 23.7601 61.4958 23.3675 61.4958C22.9749 61.4958 22.6567 61.1775 22.6567 60.785C22.6567 60.3924 22.9749 60.0741 23.3675 60.0741C23.7601 60.0741 24.0783 60.3924 24.0783 60.785Z" fill="#FEAD04" stroke="#FEAD04" stroke-width="0.999844"/>
<path d="M31.706 28.2807V28.404L31.7633 28.5131L45.7172 55.0956L45.7195 55.0998C46.0565 55.7271 46.235 56.4374 46.235 57.1529C46.235 59.5472 44.2862 61.4959 41.8919 61.4959H28.8158C28.4232 61.4959 28.105 61.1776 28.105 60.7851C28.105 60.3926 28.4232 60.0743 28.8158 60.0743H41.8918C43.5031 60.0743 44.8132 58.7642 44.8132 57.1529C44.8132 56.6645 44.6959 56.197 44.4649 55.7685L44.465 55.7684L44.4606 55.7606C44.4634 55.7655 43.3784 53.6986 42.0351 51.1398L40.7637 48.7177L38.2184 43.8689L37.3796 42.2711L37.1446 41.8235L37.0827 41.7055L37.0668 41.6753L37.0628 41.6676L37.0618 41.6657L37.0616 41.6652C37.0615 41.6651 37.0615 41.6651 36.6188 41.8974L37.0615 41.6651L36.921 41.3975H36.6188H10.1159H9.81374L9.67328 41.6651L10.1159 41.8974C9.67328 41.6651 9.67325 41.6651 9.6732 41.6652L9.67294 41.6657L9.67193 41.6676L9.66792 41.6753L9.65204 41.7055L9.59013 41.8235L9.35514 42.2711L8.5164 43.8689L5.97109 48.7177L4.69547 51.1478C3.35414 53.7029 2.27141 55.7655 2.27425 55.7604L2.27417 55.7604L2.26984 55.7685C2.03882 56.197 1.92157 56.6646 1.92157 57.1529C1.92157 58.7642 3.23168 60.0743 4.84299 60.0743H17.9191C18.3116 60.0743 18.6299 60.3926 18.6299 60.7851C18.6299 61.1776 18.3116 61.4959 17.9191 61.4959H4.84299C2.44867 61.4959 0.499922 59.5472 0.499922 57.1529C0.499922 56.4374 0.678418 55.7271 1.01541 55.0998L1.01763 55.0956L14.9716 28.5131L15.0289 28.404V28.2807V17.6825V17.1825H14.529H13.3182C12.9257 17.1825 12.6074 16.8642 12.6074 16.4717V11.6287C12.6074 11.2362 12.9257 10.9179 13.3182 10.9179H33.4167C33.8092 10.9179 34.1275 11.2362 34.1275 11.6287V16.4717C34.1275 16.8642 33.8092 17.1825 33.4167 17.1825H32.2059H31.706V17.6825V28.2807ZM14.529 12.3395H14.0291V12.8395V15.261V15.7609H14.529H32.2059H32.7058V15.261V12.8395V12.3395H32.2059H14.529ZM10.9444 39.2436L10.5601 39.9758H11.3871H35.3478H36.1748L35.7904 39.2436L30.3658 28.9095L30.3657 28.9093C30.3123 28.8076 30.2843 28.6943 30.2843 28.5792V17.6825V17.1825H29.7844H16.9505H16.4506V17.6825V28.5792C16.4506 28.694 16.4226 28.8073 16.3691 28.9095C16.369 28.9095 16.369 28.9096 16.369 28.9097L10.9444 39.2436Z" fill="#FEAD04" stroke="#FEAD04" stroke-width="0.999844"/>
</g>
<defs>
<clipPath id="clip0_518_701">
<rect width="62" height="62" fill="white"/>
</clipPath>
</defs>
</svg>
